<svg xmlns="http://www.w3.org/2000/svg" width="127" height="127" style="shape-rendering:geometricPrecision;text-rendering:geometricPrecision;image-rendering:optimizeQuality;fill-rule:evenodd;clip-rule:evenodd"><path style="opacity:.998" fill="#5d4734" d="M10.5-.5h101c.969.81 1.802 1.81 2.5 3 .414-.457.914-.79 1.5-1l2.5 3c.986-.671 2.153-.671 3.5 0a25.102 25.102 0 0 1 5 8v101c-1.158 3.835-3.491 6.835-7 9-1.69 1.842-3.69 3.175-6 4h-102c-5.692-2.359-9.692-6.359-12-12v-103c2.251-5.253 5.918-9.253 11-12z"/><path style="opacity:.867" fill="#776658" d="M111.5-.5h3a25.402 25.402 0 0 1 7 5c-1.347-.671-2.514-.671-3.5 0l-2.5-3a3.646 3.646 0 0 0-1.5 1c-.698-1.19-1.531-2.19-2.5-3z"/><path style="opacity:1" fill="#c4b49d" d="M121.5 11.5a2524.99 2524.99 0 0 1 1 100c-1.139 2.934-2.806 5.6-5 8l-5 2.5c-33 .667-66 .667-99 0-1.4-.41-2.734-.91-4-1.5a22.142 22.142 0 0 1-5.5-8 2550.487 2550.487 0 0 1 0-101C5.99 7.51 9.157 5.01 13.5 4c33-.667 66-.667 99 0 3.777 1.614 6.777 4.114 9 7.5z"/><path style="opacity:1" fill="#4c3621" d="M122.5 111.5a2524.99 2524.99 0 0 0-1-100c.31-1.238.81-1.238 1.5 0 .831 33.502.664 66.836-.5 100z"/><path style="opacity:1" fill="#57422d" d="M41.5 28.5c7.756-1.116 14.756.55 21 5 4.12-3.576 8.953-5.243 14.5-5A83.283 83.283 0 0 1 95.5 33l11 1 2.5 2.5a783.858 783.858 0 0 1 0 56 6.977 6.977 0 0 1-3.5 2.5 1563.385 1563.385 0 0 1-49 1.5 230.398 230.398 0 0 1-39-2.5 9.468 9.468 0 0 1-1.5-2.5 756.462 756.462 0 0 1 0-55l2.5-2.5c8.195-.126 15.861-1.96 23-5.5z"/><path style="opacity:1" fill="#beaa95" d="M19.5 36.5h4v53c6.994-.363 13.994-.697 21-1a69.364 69.364 0 0 1 18 2 38.821 38.821 0 0 1 7-1.5 276.835 276.835 0 0 1 32 0 696.684 696.684 0 0 0 1-52.5c1.322-.17 2.489.163 3.5 1 .667 18 .667 36 0 54a472.09 472.09 0 0 1-86.5 0 382.843 382.843 0 0 1 0-55z"/><path style="opacity:1" fill="#aa9580" d="M60.5 35.5c1.161 16.161 1.328 32.495.5 49-.995-.566-1.828-1.233-2.5-2 1.984-15.298 2.651-30.964 2-47z"/><path style="opacity:1" fill="#c5b59e" d="M65.5 83.5a552.845 552.845 0 0 1-1-47c.843-1.673 2.176-2.84 4-3.5 10.438-1.975 20.438-.475 30 4.5a276.632 276.632 0 0 1 0 47c-9.051-3.444-18.385-4.61-28-3.5-1.952.366-3.618 1.2-5 2.5z"/><path style="opacity:1" fill="#c6b59e" d="M60.5 35.5c.651 16.036-.016 31.702-2 47-3.065-1.798-6.398-2.798-10-3a112.034 112.034 0 0 0-21.5 5c-.5-15.996-.667-31.996-.5-48a160.41 160.41 0 0 1 21-5c4.83-.046 9.163 1.287 13 4z"/><path style="opacity:1" fill="#6b5943" d="M64.5 36.5a552.845 552.845 0 0 0 1 47c-.06.543-.393.876-1 1-1.327-16.162-1.327-32.162 0-48z"/><path style="opacity:1" fill="#ccb5a1" d="M55.5 84.5a45.626 45.626 0 0 1-19 0c6.385-1.198 12.718-1.198 19 0z"/><path style="opacity:1" fill="#c8b29d" d="M70.5 83.5a67.622 67.622 0 0 1 18 1.5c-7.05.448-14.05.781-21 1a81.718 81.718 0 0 0 3-2.5z"/><path style="opacity:1" fill="#856e59" d="M36.5 84.5a45.626 45.626 0 0 0 19 0c1.256-.039 2.256.461 3 1.5-8.667.667-17.333.667-26 0 1.063-1.188 2.397-1.688 4-1.5z"/><path style="opacity:1" fill="#4d3823" d="M117.5 119.5c-.458 1.272.209 2.272 2 3a2024.216 2024.216 0 0 1-108 .5 6.802 6.802 0 0 1-3-1.5c.124-.607.457-.94 1-1 1.266.59 2.6 1.09 4 1.5 33 .667 66 .667 99 0l5-2.5z"/></svg>